HIERARCHY
ROOT hip
{
	OFFSET	0.00  0.00  0.00 
	CHANNELS 6 Xposition Yposition Zposition Xrotation Zrotation Yrotation
	JOINT abdomen
	{
		OFFSET	0.000000 0.000000 0.000000
		CHANNELS 3 Xrotation Zrotation Yrotation
		JOINT chest
		{
			OFFSET	0.000000 5.018152 -1.882228
			CHANNELS 3 Xrotation Zrotation Yrotation
			JOINT neckDummy
			{
				OFFSET	0.000000 8.316447 0.784897
				CHANNELS 3 Xrotation Yrotation Zrotation
				JOINT neck
				{
					OFFSET	0.000000 2.280413 -0.392801
					CHANNELS 3 Xrotation Zrotation Yrotation
					JOINT head
					{
						OFFSET	0.000000 3.496879 0.529469
						CHANNELS 3 Xrotation Zrotation Yrotation
						JOINT figureHair
						{
							OFFSET	0.000000 4.699570 0.720622
							CHANNELS 3 Zrotation Yrotation Xrotation
							End Site
							{
								OFFSET 0.000000 -6.419331 0.000000
							}
						}
					}
				}
			}
			JOINT lCollar
			{
				OFFSET	0.599237 8.316447 0.784897
				CHANNELS 3 Yrotation Zrotation Xrotation
				JOINT lShldr
				{
					OFFSET	6.421198 0.010146 -0.332128
					CHANNELS 3 Zrotation Yrotation Xrotation
					JOINT lForeArm
					{
						OFFSET	10.552783 0.025574 0.125508
						CHANNELS 3 Yrotation Zrotation Xrotation
						JOINT lHand
						{
							OFFSET	11.035963 0.319619 0.041520
							CHANNELS 3 Zrotation Yrotation Xrotation
							End Site
							{
								OFFSET 10.353753 0.000000 0.000000
							}
						}
					}
				}
			}
			JOINT rCollar
			{
				OFFSET	-0.599237 8.316447 0.784897
				CHANNELS 3 Yrotation Zrotation Xrotation
				JOINT rShldr
				{
					OFFSET	-6.421198 0.010146 -0.332128
					CHANNELS 3 Zrotation Yrotation Xrotation
					JOINT rForeArm
					{
						OFFSET	-10.552783 0.025574 0.125508
						CHANNELS 3 Yrotation Zrotation Xrotation
						JOINT rHand
						{
							OFFSET	-11.035963 0.319619 0.041520
							CHANNELS 3 Zrotation Yrotation Xrotation
							End Site
							{
								OFFSET -10.353753 0.000000 0.000000
							}
						}
					}
				}
			}
		}
	}
	JOINT lThigh
	{
		OFFSET	4.500466 -6.400484 -1.832696
		CHANNELS 3 Xrotation Zrotation Yrotation
		JOINT lShin
		{
			OFFSET	-1.359117 -18.918689 1.179887
			CHANNELS 3 Xrotation Zrotation Yrotation
			JOINT lFoot
			{
				OFFSET	-0.652380 -17.215186 -0.312137
				CHANNELS 3 Xrotation Yrotation Zrotation
				End Site
				{
					OFFSET 0.000000 0.000000 10.353752
				}
			}
		}
	}
	JOINT rThigh
	{
		OFFSET	-4.500466 -6.400484 -1.832696
		CHANNELS 3 Xrotation Zrotation Yrotation
		JOINT rShin
		{
			OFFSET	1.359117 -18.918689 1.179887
			CHANNELS 3 Xrotation Zrotation Yrotation
			JOINT rFoot
			{
				OFFSET	0.652380 -17.215186 -0.312137
				CHANNELS 3 Xrotation Yrotation Zrotation
				End Site
				{
					OFFSET 0.000000 0.000000 10.353752
				}
			}
		}
	}
}
MOTION
Frames:     10
Frame Time: 0.200000
0.000000 42.014908 0.240040 0.000000 0.000000 0.000000 0.000000 0.000000 0.000000 0.000000 0.000000 0.000000 0.000000 0.000000 0.000000 0.000000 0.000000 0.000000 0.000000 0.000000 0.000000 0.000000 0.000000 0.000000 2.021920 -5.690310 -0.063351 -70.104851 9.959677 15.983879 -22.552279 -9.319896 0.134635 5.975364 -0.119939 0.169518 -2.021920 5.690310 -0.063351 70.083923 -9.978521 15.970569 22.553398 9.316293 0.143662 -5.965427 0.128091 0.169127 -7.544928 3.982114 0.126592 15.855997 -3.300727 -0.855127 -8.588077 1.056593 -0.877759 -7.531943 -4.331991 0.100592 15.798183 3.280715 0.615038 -8.629052 -1.569327 0.946211 
0.271068 42.024906 0.147554 0.109845 -0.062934 -0.421019 0.039041 0.193572 1.009499 -0.473972 -0.332479 0.171330 0.000000 0.000000 0.000000 0.056329 -0.781767 0.107225 -0.322404 0.947952 0.171443 0.000000 0.000000 0.000000 0.340640 -5.824829 -0.340484 -66.128891 15.997488 16.351315 -34.178020 -13.546772 -0.688582 8.653841 -0.909792 -0.479125 -1.996108 5.771087 1.041176 66.381096 -12.354717 16.712971 30.843754 15.050611 -1.135935 -7.526476 2.310198 1.479163 -7.589390 4.731351 -1.462437 15.789252 -3.405335 -1.018883 -8.651917 3.521147 -1.130605 -7.859209 -4.666745 1.168857 15.775883 2.701386 0.544191 -8.494290 -1.981561 2.148011 
0.542136 42.034908 0.055067 0.219690 -0.125869 -0.842038 0.078082 0.387144 2.018998 -0.947944 -0.664958 0.342660 0.000000 0.000000 0.000000 0.112659 -1.563533 0.214451 -0.644809 1.895905 0.342887 0.000000 0.000000 0.000000 -1.340640 -5.959348 -0.617617 -62.683651 21.149044 16.786598 -44.017994 -17.048624 -1.529063 11.170384 -2.509522 -1.319721 -1.970295 5.851863 2.145703 62.551167 -14.129805 17.747341 38.762802 20.695684 -2.691791 -9.787457 4.795127 1.894050 -7.638703 5.473504 -3.053311 15.713173 -3.503260 -1.181627 -8.699841 5.968070 -1.392179 -8.177234 -4.996433 2.240220 15.762972 2.124987 0.474408 -8.380970 -2.419100 3.348174 
0.813205 42.044910 -0.037420 0.329535 -0.188803 -1.263057 0.117124 0.580717 3.028497 -1.421917 -0.997437 0.513990 0.000000 0.000000 0.000000 0.168988 -2.345300 0.321676 -0.967213 2.843857 0.514330 0.000000 0.000000 0.000000 -3.021920 -6.093867 -0.894751 -59.622601 25.564346 17.213446 -52.352573 -20.022266 -2.118056 13.701247 -4.768078 -2.517308 -1.944483 5.932640 3.250229 59.190632 -14.893600 18.848883 45.239563 25.644358 -3.933097 -12.613768 8.000722 1.302696 -7.691162 6.217865 -4.646271 15.636781 -3.599344 -1.343418 -8.713182 8.427948 -1.632466 -8.499812 -5.319097 3.322895 15.750594 1.542907 0.393994 -8.262856 -2.858978 4.578647 
1.084273 42.054909 -0.129907 0.439380 -0.251738 -1.684076 0.156165 0.774289 4.037996 -1.895889 -1.329916 0.685320 0.000000 0.000000 0.000000 0.225318 -3.127067 0.428901 -1.289618 3.791809 0.685773 0.000000 0.000000 0.000000 -4.703200 -6.228386 -1.171884 -56.847359 29.515936 17.576977 -59.642372 -22.674715 -2.376731 16.342432 -7.381519 -4.099115 -1.918671 6.013417 4.354756 56.054146 -14.989549 19.890003 51.031998 30.278267 -4.899649 -16.360025 11.352532 -0.201075 -7.982189 6.999738 -6.249181 15.579272 -3.697521 -1.506698 -8.478798 10.889398 -1.944704 -8.813342 -5.651584 4.388400 15.726503 0.963811 0.333338 -8.134190 -3.288332 5.791983 
1.355341 42.064911 -0.222393 0.549225 -0.314672 -2.105094 0.195206 0.967861 5.047495 -2.369861 -1.662394 0.856650 0.000000 0.000000 0.000000 0.281647 -3.908833 0.536127 -1.612022 4.739761 0.857217 0.000000 0.000000 0.000000 -6.384480 -6.362905 -1.449017 -54.153294 33.114620 17.903385 -66.272476 -25.210133 -2.366047 19.286388 -10.117935 -6.157113 -1.892859 6.094193 5.459283 53.118885 -14.494799 20.680502 56.386868 34.741276 -5.571267 -21.172997 14.511123 -2.598987 -7.864185 7.726336 -7.840536 15.508261 -3.808690 -1.660942 -8.650192 13.343686 -2.152014 -9.138058 -5.984979 5.465473 15.721767 0.378186 0.253279 -8.034583 -3.693706 7.035882 
1.626409 42.074909 -0.314880 0.659070 -0.377607 -2.526113 0.234247 1.161433 6.056993 -2.843833 -1.994873 1.027980 0.000000 0.000000 0.000000 0.337977 -4.690600 0.643352 -1.934427 5.687714 1.028660 0.000000 0.000000 0.000000 -8.065760 -6.497423 -1.726150 -51.431458 36.494164 18.215395 -72.691879 -27.757124 -2.158436 22.648233 -12.635542 -8.665036 -1.867047 6.174970 6.563809 50.433846 -13.531493 21.092705 61.315201 39.136921 -5.839595 -27.144516 17.132921 -5.901903 -7.836453 8.462747 -9.422298 15.429607 -3.903604 -1.831254 -8.674287 15.808408 -2.407364 -9.461427 -6.317532 6.535094 15.695568 -0.197907 0.183415 -7.894383 -4.115191 8.261044 
1.897477 42.084911 -0.407367 0.768915 -0.440541 -2.947132 0.273289 1.355006 7.066493 -3.317806 -2.327352 1.199310 0.000000 0.000000 0.000000 0.394306 -5.472367 0.750577 -2.256831 6.635666 1.200103 0.000000 0.000000 0.000000 -9.747040 -6.631942 -2.003284 -48.734608 39.594982 18.441078 -78.606110 -30.344095 -1.604514 26.537395 -14.961072 -11.800430 -1.841234 6.255747 7.668336 47.907829 -12.120826 21.057095 66.288231 43.662964 -5.998705 -34.339672 18.676882 -9.907725 -7.882502 9.202538 -11.016484 15.359704 -4.003514 -1.983892 -8.613590 18.271017 -2.665062 -9.784203 -6.649809 7.607005 15.677063 -0.786135 0.122299 -7.770855 -4.542651 9.525839 
2.168545 42.094910 -0.499854 0.878760 -0.503476 -3.368151 0.312330 1.548578 8.075992 -3.791778 -2.659831 1.370640 0.000000 0.000000 0.000000 0.450636 -6.254133 0.857803 -2.579236 7.583618 1.371547 0.000000 0.000000 0.000000 -11.428320 -6.766461 -2.280417 -45.853313 42.461956 18.696877 -84.325165 -33.074814 -0.807367 31.069216 -16.880047 -15.574677 -1.815422 6.336524 8.772863 45.352100 -10.108641 20.774839 71.739418 48.392483 -6.347943 -42.828831 18.511665 -14.557414 -7.935435 9.957652 -12.612674 15.289377 -4.100847 -2.145841 -8.540884 20.714056 -2.959642 -10.103319 -6.970722 8.691045 15.668772 -1.359580 0.034148 -7.651551 -4.943635 10.753547 
2.439614 42.104912 -0.592340 0.988605 -0.566410 -3.789170 0.351371 1.742150 9.085490 -4.265750 -2.992310 1.541970 0.000000 0.000000 0.000000 0.506965 -7.035900 0.965028 -2.901640 8.531570 1.542990 0.000000 0.000000 0.000000 -13.109600 -6.900980 -2.557550 -43.041008 44.879436 18.784231 -90.723572 -35.981312 -0.249153 36.224281 -17.331951 -19.449549 -1.789610 6.417300 9.877390 42.826813 -7.096495 20.773933 77.779594 53.266209 -7.081445 -52.904007 16.124186 -19.623806 -7.985085 10.700562 -14.202012 15.225494 -4.209219 -2.309679 -8.467058 23.182129 -3.221308 -10.424952 -7.302544 9.767563 15.649514 -1.932963 -0.044441 -7.527753 -5.353947 12.001765 
